<?xml version="1.0" encoding="UTF-8"?><svg xmlns="http://www.w3.org/2000/svg" xmlns:xlink="http://www.w3.org/1999/xlink" fill-opacity="1" color-rendering="auto" color-interpolation="auto" text-rendering="auto" stroke="black" stroke-linecap="square" width="560" stroke-miterlimit="10" shape-rendering="auto" stroke-opacity="1" fill="black" stroke-dasharray="none" font-weight="normal" stroke-width="1" height="605" font-family="'Dialog'" font-style="normal" stroke-linejoin="miter" font-size="12px" stroke-dashoffset="0" image-rendering="auto">
  <!--Generated by ySVG 2.5-->
  <defs id="genericDefs"/>
  <g>
    <defs id="defs1">
      <clipPath clipPathUnits="userSpaceOnUse" id="clipPath1">
        <path d="M0 0 L560 0 L560 605 L0 605 L0 0 Z"/>
      </clipPath>
      <clipPath clipPathUnits="userSpaceOnUse" id="clipPath2">
        <path d="M410 110 L970 110 L970 715 L410 715 L410 110 Z"/>
      </clipPath>
    </defs>
    <g fill="white" text-rendering="geometricPrecision" shape-rendering="geometricPrecision" transform="translate(-410,-110)" stroke="white">
      <rect x="410" width="560" height="605" y="110" clip-path="url(#clipPath2)" stroke="none"/>
    </g>
    <g stroke-linecap="butt" transform="matrix(1,0,0,1,-410,-110)" fill="rgb(238,238,238)" text-rendering="geometricPrecision" shape-rendering="geometricPrecision" stroke="rgb(238,238,238)" stroke-width="4" stroke-miterlimit="1.45">
      <path fill="none" d="M690 199.875 L690 190.125" clip-path="url(#clipPath2)"/>
      <path d="M690 215 L698.25 198.5 L681.75 198.5 Z" clip-path="url(#clipPath2)" stroke="none"/>
      <path d="M690 175 L681.75 191.5 L698.25 191.5 Z" clip-path="url(#clipPath2)" stroke="none"/>
      <path fill="none" d="M667.7427 183.386 L652.2573 206.614" clip-path="url(#clipPath2)"/>
      <path d="M676.1325 170.8013 L660.1155 179.9538 L673.8444 189.1064 Z" clip-path="url(#clipPath2)" stroke="none"/>
      <path d="M643.8675 219.1987 L659.8845 210.0462 L646.1556 200.8936 Z" clip-path="url(#clipPath2)" stroke="none"/>
      <path fill="none" d="M667.7427 296.614 L652.2573 273.386" clip-path="url(#clipPath2)"/>
      <path d="M676.1325 309.1987 L673.8444 290.8936 L660.1155 300.0462 Z" clip-path="url(#clipPath2)" stroke="none"/>
      <path d="M643.8675 260.8013 L646.1556 279.1064 L659.8845 269.9538 Z" clip-path="url(#clipPath2)" stroke="none"/>
      <path fill="none" d="M690 289.875 L690 280.125" clip-path="url(#clipPath2)"/>
      <path d="M690 305 L698.25 288.5 L681.75 288.5 Z" clip-path="url(#clipPath2)" stroke="none"/>
      <path d="M690 265 L681.75 281.5 L698.25 281.5 Z" clip-path="url(#clipPath2)" stroke="none"/>
      <path fill="none" d="M652.2573 296.614 L667.7427 273.386" clip-path="url(#clipPath2)"/>
      <path d="M643.8675 309.1987 L659.8845 300.0462 L646.1556 290.8936 Z" clip-path="url(#clipPath2)" stroke="none"/>
      <path d="M676.1325 260.8013 L660.1155 269.9538 L673.8444 279.1064 Z" clip-path="url(#clipPath2)" stroke="none"/>
      <path fill="none" d="M727.7427 296.614 L712.2573 273.386" clip-path="url(#clipPath2)"/>
      <path d="M736.1325 309.1987 L733.8444 290.8936 L720.1155 300.0462 Z" clip-path="url(#clipPath2)" stroke="none"/>
      <path d="M703.8675 260.8013 L706.1556 279.1064 L719.8845 269.9538 Z" clip-path="url(#clipPath2)" stroke="none"/>
      <path fill="none" d="M712.2573 183.386 L727.7427 206.614" clip-path="url(#clipPath2)"/>
      <path d="M703.8675 170.8013 L706.1556 189.1064 L719.8845 179.9538 Z" clip-path="url(#clipPath2)" stroke="none"/>
      <path d="M736.1325 219.1987 L733.8444 200.8936 L720.1155 210.0462 Z" clip-path="url(#clipPath2)" stroke="none"/>
      <path fill="none" d="M712.2573 296.614 L727.7427 273.386" clip-path="url(#clipPath2)"/>
      <path d="M703.8675 309.1987 L719.8845 300.0462 L706.1556 290.8936 Z" clip-path="url(#clipPath2)" stroke="none"/>
      <path d="M736.1325 260.8013 L720.1155 269.9538 L733.8444 279.1064 Z" clip-path="url(#clipPath2)" stroke="none"/>
      <path fill="none" d="M607.7427 273.386 L592.2573 296.614" clip-path="url(#clipPath2)"/>
      <path d="M616.1325 260.8013 L600.1155 269.9538 L613.8444 279.1064 Z" clip-path="url(#clipPath2)" stroke="none"/>
      <path d="M583.8675 309.1987 L599.8845 300.0462 L586.1556 290.8936 Z" clip-path="url(#clipPath2)" stroke="none"/>
      <path fill="none" d="M607.7427 386.614 L592.2573 363.386" clip-path="url(#clipPath2)"/>
      <path d="M616.1325 399.1987 L613.8444 380.8936 L600.1155 390.0462 Z" clip-path="url(#clipPath2)" stroke="none"/>
      <path d="M583.8675 350.8013 L586.1556 369.1064 L599.8845 359.9538 Z" clip-path="url(#clipPath2)" stroke="none"/>
      <path fill="none" d="M630 280.125 L630 289.875" clip-path="url(#clipPath2)"/>
      <path d="M630 265 L621.75 281.5 L638.25 281.5 Z" clip-path="url(#clipPath2)" stroke="none"/>
      <path d="M630 305 L638.25 288.5 L621.75 288.5 Z" clip-path="url(#clipPath2)" stroke="none"/>
      <path fill="none" d="M592.2573 386.614 L607.7427 363.386" clip-path="url(#clipPath2)"/>
      <path d="M583.8675 399.1987 L599.8845 390.0462 L586.1556 380.8936 Z" clip-path="url(#clipPath2)" stroke="none"/>
      <path d="M616.1325 350.8013 L600.1155 359.9538 L613.8444 369.1064 Z" clip-path="url(#clipPath2)" stroke="none"/>
      <path fill="none" d="M667.7427 386.614 L652.2573 363.386" clip-path="url(#clipPath2)"/>
      <path d="M676.1325 399.1987 L673.8444 380.8936 L660.1155 390.0462 Z" clip-path="url(#clipPath2)" stroke="none"/>
      <path d="M643.8675 350.8013 L646.1556 369.1064 L659.8845 359.9538 Z" clip-path="url(#clipPath2)" stroke="none"/>
      <path fill="none" d="M690 379.875 L690 370.125" clip-path="url(#clipPath2)"/>
      <path d="M690 395 L698.25 378.5 L681.75 378.5 Z" clip-path="url(#clipPath2)" stroke="none"/>
      <path d="M690 355 L681.75 371.5 L698.25 371.5 Z" clip-path="url(#clipPath2)" stroke="none"/>
      <path fill="none" d="M652.2573 386.614 L667.7427 363.386" clip-path="url(#clipPath2)"/>
      <path d="M643.8675 399.1987 L659.8845 390.0462 L646.1556 380.8936 Z" clip-path="url(#clipPath2)" stroke="none"/>
      <path d="M676.1325 350.8013 L660.1155 359.9538 L673.8444 369.1064 Z" clip-path="url(#clipPath2)" stroke="none"/>
      <path fill="none" d="M727.7427 386.614 L712.2573 363.386" clip-path="url(#clipPath2)"/>
      <path d="M736.1325 399.1987 L733.8444 380.8936 L720.1155 390.0462 Z" clip-path="url(#clipPath2)" stroke="none"/>
      <path d="M703.8675 350.8013 L706.1556 369.1064 L719.8845 359.9538 Z" clip-path="url(#clipPath2)" stroke="none"/>
      <path fill="none" d="M750 280.125 L750 289.875" clip-path="url(#clipPath2)"/>
      <path d="M750 265 L741.75 281.5 L758.25 281.5 Z" clip-path="url(#clipPath2)" stroke="none"/>
      <path d="M750 305 L758.25 288.5 L741.75 288.5 Z" clip-path="url(#clipPath2)" stroke="none"/>
      <path fill="none" d="M712.2573 386.614 L727.7427 363.386" clip-path="url(#clipPath2)"/>
      <path d="M703.8675 399.1987 L719.8845 390.0462 L706.1556 380.8936 Z" clip-path="url(#clipPath2)" stroke="none"/>
      <path d="M736.1325 350.8013 L720.1155 359.9538 L733.8444 369.1064 Z" clip-path="url(#clipPath2)" stroke="none"/>
      <path fill="none" d="M787.7427 386.614 L772.2573 363.386" clip-path="url(#clipPath2)"/>
      <path d="M796.1325 399.1987 L793.8444 380.8936 L780.1155 390.0462 Z" clip-path="url(#clipPath2)" stroke="none"/>
      <path d="M763.8675 350.8013 L766.1556 369.1064 L779.8845 359.9538 Z" clip-path="url(#clipPath2)" stroke="none"/>
      <path fill="none" d="M772.2573 273.386 L787.7427 296.614" clip-path="url(#clipPath2)"/>
      <path d="M763.8675 260.8013 L766.1556 279.1064 L779.8845 269.9538 Z" clip-path="url(#clipPath2)" stroke="none"/>
      <path d="M796.1325 309.1987 L793.8444 290.8936 L780.1155 300.0462 Z" clip-path="url(#clipPath2)" stroke="none"/>
      <path fill="none" d="M772.2573 386.614 L787.7427 363.386" clip-path="url(#clipPath2)"/>
      <path d="M763.8675 399.1987 L779.8845 390.0462 L766.1556 380.8936 Z" clip-path="url(#clipPath2)" stroke="none"/>
      <path d="M796.1325 350.8013 L780.1155 359.9538 L793.8444 369.1064 Z" clip-path="url(#clipPath2)" stroke="none"/>
      <path fill="none" d="M547.7427 363.386 L532.2573 386.614" clip-path="url(#clipPath2)"/>
      <path d="M556.1325 350.8013 L540.1155 359.9538 L553.8444 369.1064 Z" clip-path="url(#clipPath2)" stroke="none"/>
      <path d="M523.8675 399.1987 L539.8845 390.0462 L526.1556 380.8936 Z" clip-path="url(#clipPath2)" stroke="none"/>
      <path fill="none" d="M547.7427 476.614 L532.2573 453.386" clip-path="url(#clipPath2)"/>
      <path d="M556.1325 489.1987 L553.8444 470.8936 L540.1155 480.0462 Z" clip-path="url(#clipPath2)" stroke="none"/>
      <path d="M523.8675 440.8013 L526.1556 459.1064 L539.8845 449.9538 Z" clip-path="url(#clipPath2)" stroke="none"/>
      <path fill="none" d="M570 370.125 L570 379.875" clip-path="url(#clipPath2)"/>
      <path d="M570 355 L561.75 371.5 L578.25 371.5 Z" clip-path="url(#clipPath2)" stroke="none"/>
      <path d="M570 395 L578.25 378.5 L561.75 378.5 Z" clip-path="url(#clipPath2)" stroke="none"/>
      <path fill="none" d="M532.2573 476.614 L547.7427 453.386" clip-path="url(#clipPath2)"/>
      <path d="M523.8675 489.1987 L539.8845 480.0462 L526.1556 470.8936 Z" clip-path="url(#clipPath2)" stroke="none"/>
      <path d="M556.1325 440.8013 L540.1155 449.9538 L553.8444 459.1064 Z" clip-path="url(#clipPath2)" stroke="none"/>
      <path fill="none" d="M570 469.875 L570 460.125" clip-path="url(#clipPath2)"/>
      <path d="M570 485 L578.25 468.5 L561.75 468.5 Z" clip-path="url(#clipPath2)" stroke="none"/>
      <path d="M570 445 L561.75 461.5 L578.25 461.5 Z" clip-path="url(#clipPath2)" stroke="none"/>
      <path fill="none" d="M630 370.125 L630 379.875" clip-path="url(#clipPath2)"/>
      <path d="M630 355 L621.75 371.5 L638.25 371.5 Z" clip-path="url(#clipPath2)" stroke="none"/>
      <path d="M630 395 L638.25 378.5 L621.75 378.5 Z" clip-path="url(#clipPath2)" stroke="none"/>
      <path fill="none" d="M667.7427 476.614 L652.2573 453.386" clip-path="url(#clipPath2)"/>
      <path d="M676.1325 489.1987 L673.8444 470.8936 L660.1155 480.0462 Z" clip-path="url(#clipPath2)" stroke="none"/>
      <path d="M643.8675 440.8013 L646.1556 459.1064 L659.8845 449.9538 Z" clip-path="url(#clipPath2)" stroke="none"/>
      <path fill="none" d="M690 469.875 L690 460.125" clip-path="url(#clipPath2)"/>
      <path d="M690 485 L698.25 468.5 L681.75 468.5 Z" clip-path="url(#clipPath2)" stroke="none"/>
      <path d="M690 445 L681.75 461.5 L698.25 461.5 Z" clip-path="url(#clipPath2)" stroke="none"/>
      <path fill="none" d="M750 370.125 L750 379.875" clip-path="url(#clipPath2)"/>
      <path d="M750 355 L741.75 371.5 L758.25 371.5 Z" clip-path="url(#clipPath2)" stroke="none"/>
      <path d="M750 395 L758.25 378.5 L741.75 378.5 Z" clip-path="url(#clipPath2)" stroke="none"/>
      <path fill="none" d="M712.2573 476.614 L727.7427 453.386" clip-path="url(#clipPath2)"/>
      <path d="M703.8675 489.1987 L719.8845 480.0462 L706.1556 470.8936 Z" clip-path="url(#clipPath2)" stroke="none"/>
      <path d="M736.1325 440.8013 L720.1155 449.9538 L733.8444 459.1064 Z" clip-path="url(#clipPath2)" stroke="none"/>
      <path fill="none" d="M810 370.125 L810 379.875" clip-path="url(#clipPath2)"/>
      <path d="M810 355 L801.75 371.5 L818.25 371.5 Z" clip-path="url(#clipPath2)" stroke="none"/>
      <path d="M810 395 L818.25 378.5 L801.75 378.5 Z" clip-path="url(#clipPath2)" stroke="none"/>
      <path fill="none" d="M810 469.875 L810 460.125" clip-path="url(#clipPath2)"/>
      <path d="M810 485 L818.25 468.5 L801.75 468.5 Z" clip-path="url(#clipPath2)" stroke="none"/>
      <path d="M810 445 L801.75 461.5 L818.25 461.5 Z" clip-path="url(#clipPath2)" stroke="none"/>
      <path fill="none" d="M847.7427 476.614 L832.2573 453.386" clip-path="url(#clipPath2)"/>
      <path d="M856.1325 489.1987 L853.8444 470.8936 L840.1155 480.0462 Z" clip-path="url(#clipPath2)" stroke="none"/>
      <path d="M823.8675 440.8013 L826.1556 459.1064 L839.8845 449.9538 Z" clip-path="url(#clipPath2)" stroke="none"/>
      <path fill="none" d="M832.2573 363.386 L847.7427 386.614" clip-path="url(#clipPath2)"/>
      <path d="M823.8675 350.8013 L826.1556 369.1064 L839.8845 359.9538 Z" clip-path="url(#clipPath2)" stroke="none"/>
      <path d="M856.1325 399.1987 L853.8444 380.8936 L840.1155 390.0462 Z" clip-path="url(#clipPath2)" stroke="none"/>
      <path fill="none" d="M832.2573 476.614 L847.7427 453.386" clip-path="url(#clipPath2)"/>
      <path d="M823.8675 489.1987 L839.8845 480.0462 L826.1556 470.8936 Z" clip-path="url(#clipPath2)" stroke="none"/>
      <path d="M856.1325 440.8013 L840.1155 449.9538 L853.8444 459.1064 Z" clip-path="url(#clipPath2)" stroke="none"/>
      <path fill="none" d="M487.7426 453.386 L472.2574 476.614" clip-path="url(#clipPath2)"/>
      <path d="M496.1325 440.8013 L480.1155 449.9538 L493.8443 459.1064 Z" clip-path="url(#clipPath2)" stroke="none"/>
      <path d="M463.8675 489.1987 L479.8845 480.0462 L466.1557 470.8936 Z" clip-path="url(#clipPath2)" stroke="none"/>
      <path fill="none" d="M510 460.125 L510 469.875" clip-path="url(#clipPath2)"/>
      <path d="M510 445 L501.75 461.5 L518.25 461.5 Z" clip-path="url(#clipPath2)" stroke="none"/>
      <path d="M510 485 L518.25 468.5 L501.75 468.5 Z" clip-path="url(#clipPath2)" stroke="none"/>
      <path fill="none" d="M607.7427 453.386 L592.2573 476.614" clip-path="url(#clipPath2)"/>
      <path d="M616.1325 440.8013 L600.1155 449.9538 L613.8444 459.1064 Z" clip-path="url(#clipPath2)" stroke="none"/>
      <path d="M583.8675 489.1987 L599.8845 480.0462 L586.1556 470.8936 Z" clip-path="url(#clipPath2)" stroke="none"/>
      <path fill="none" d="M690 559.875 L690 550.125" clip-path="url(#clipPath2)"/>
      <path d="M690 575 L698.25 558.5 L681.75 558.5 Z" clip-path="url(#clipPath2)" stroke="none"/>
      <path d="M690 535 L681.75 551.5 L698.25 551.5 Z" clip-path="url(#clipPath2)" stroke="none"/>
      <path fill="none" d="M772.2573 453.386 L787.7427 476.614" clip-path="url(#clipPath2)"/>
      <path d="M763.8675 440.8013 L766.1556 459.1064 L779.8845 449.9538 Z" clip-path="url(#clipPath2)" stroke="none"/>
      <path d="M796.1325 489.1987 L793.8444 470.8936 L780.1155 480.0462 Z" clip-path="url(#clipPath2)" stroke="none"/>
      <path fill="none" d="M870 460.125 L870 469.875" clip-path="url(#clipPath2)"/>
      <path d="M870 445 L861.75 461.5 L878.25 461.5 Z" clip-path="url(#clipPath2)" stroke="none"/>
      <path d="M870 485 L878.25 468.5 L861.75 468.5 Z" clip-path="url(#clipPath2)" stroke="none"/>
      <path fill="none" d="M892.2573 453.386 L907.7427 476.614" clip-path="url(#clipPath2)"/>
      <path d="M883.8675 440.8013 L886.1556 459.1064 L899.8845 449.9538 Z" clip-path="url(#clipPath2)" stroke="none"/>
      <path d="M916.1325 489.1987 L913.8444 470.8936 L900.1155 480.0462 Z" clip-path="url(#clipPath2)" stroke="none"/>
      <circle stroke-linecap="square" clip-path="url(#clipPath2)" r="25" cx="690" cy="150" stroke="none" stroke-width="1" stroke-miterlimit="10"/>
      <circle stroke-linecap="square" clip-path="url(#clipPath2)" r="25" cx="630" cy="240" stroke="none" stroke-width="1" stroke-miterlimit="10"/>
      <circle stroke-linecap="square" clip-path="url(#clipPath2)" r="25" cx="690" cy="240" stroke="none" stroke-width="1" stroke-miterlimit="10"/>
      <circle stroke-linecap="square" clip-path="url(#clipPath2)" r="25" cx="750" cy="240" stroke="none" stroke-width="1" stroke-miterlimit="10"/>
      <circle stroke-linecap="square" clip-path="url(#clipPath2)" r="25" cx="570" cy="330" stroke="none" stroke-width="1" stroke-miterlimit="10"/>
      <circle stroke-linecap="square" clip-path="url(#clipPath2)" r="25" cx="630" cy="330" stroke="none" stroke-width="1" stroke-miterlimit="10"/>
      <circle stroke-linecap="square" clip-path="url(#clipPath2)" r="25" cx="690" cy="330" stroke="none" stroke-width="1" stroke-miterlimit="10"/>
      <circle stroke-linecap="square" clip-path="url(#clipPath2)" r="25" cx="750" cy="330" stroke="none" stroke-width="1" stroke-miterlimit="10"/>
      <circle stroke-linecap="square" clip-path="url(#clipPath2)" r="25" cx="810" cy="330" stroke="none" stroke-width="1" stroke-miterlimit="10"/>
      <circle stroke-linecap="square" clip-path="url(#clipPath2)" r="25" cx="510" cy="420" stroke="none" stroke-width="1" stroke-miterlimit="10"/>
      <circle stroke-linecap="square" clip-path="url(#clipPath2)" r="25" cx="570" cy="420" stroke="none" stroke-width="1" stroke-miterlimit="10"/>
      <circle stroke-linecap="square" clip-path="url(#clipPath2)" r="25" cx="630" cy="420" stroke="none" stroke-width="1" stroke-miterlimit="10"/>
      <circle stroke-linecap="square" clip-path="url(#clipPath2)" r="25" cx="690" cy="420" stroke="none" stroke-width="1" stroke-miterlimit="10"/>
      <circle stroke-linecap="square" clip-path="url(#clipPath2)" r="25" cx="750" cy="420" stroke="none" stroke-width="1" stroke-miterlimit="10"/>
      <circle stroke-linecap="square" clip-path="url(#clipPath2)" r="25" cx="810" cy="420" stroke="none" stroke-width="1" stroke-miterlimit="10"/>
      <circle stroke-linecap="square" clip-path="url(#clipPath2)" r="25" cx="870" cy="420" stroke="none" stroke-width="1" stroke-miterlimit="10"/>
      <circle stroke-linecap="square" clip-path="url(#clipPath2)" r="25" cx="450" cy="510" stroke="none" stroke-width="1" stroke-miterlimit="10"/>
      <circle stroke-linecap="square" clip-path="url(#clipPath2)" r="25" cx="510" cy="510" stroke="none" stroke-width="1" stroke-miterlimit="10"/>
      <circle stroke-linecap="square" clip-path="url(#clipPath2)" r="25" cx="570" cy="510" stroke="none" stroke-width="1" stroke-miterlimit="10"/>
      <circle stroke-linecap="square" clip-path="url(#clipPath2)" r="25" cx="690" cy="510" stroke="none" stroke-width="1" stroke-miterlimit="10"/>
      <circle stroke-linecap="square" clip-path="url(#clipPath2)" r="25" cx="810" cy="510" stroke="none" stroke-width="1" stroke-miterlimit="10"/>
      <circle stroke-linecap="square" clip-path="url(#clipPath2)" r="25" cx="870" cy="510" stroke="none" stroke-width="1" stroke-miterlimit="10"/>
      <circle stroke-linecap="square" clip-path="url(#clipPath2)" r="25" cx="930" cy="510" stroke="none" stroke-width="1" stroke-miterlimit="10"/>
      <circle stroke-linecap="square" clip-path="url(#clipPath2)" r="25" cx="690" cy="600" stroke="none" stroke-width="1" stroke-miterlimit="10"/>
      <rect x="425" y="655" clip-path="url(#clipPath2)" fill="none" width="530" height="45" stroke="black" stroke-width="1"/>
    </g>
    <g font-size="14px" stroke-linecap="butt" transform="matrix(1,0,0,1,-410,-110)" text-rendering="geometricPrecision" font-family="'Roboto Condensed'" shape-rendering="geometricPrecision" stroke-miterlimit="1.45">
      <text x="543.8716" xml:space="preserve" y="673.7061" clip-path="url(#clipPath2)" stroke="none">#xmasgraph https://github.com/adibaba/xmasgraph</text>
      <text x="442.2041" xml:space="preserve" y="692.1699" clip-path="url(#clipPath2)" stroke="none">Licensed under a Creative Commons Attribution-NonCommercial 4.0 International License</text>
    </g>
  </g>
</svg>
