<?xml version="1.0" encoding="UTF-8"?><svg xmlns="http://www.w3.org/2000/svg" xmlns:xlink="http://www.w3.org/1999/xlink" fill-opacity="1" color-rendering="auto" color-interpolation="auto" text-rendering="auto" stroke="black" stroke-linecap="square" width="560" stroke-miterlimit="10" shape-rendering="auto" stroke-opacity="1" fill="black" stroke-dasharray="none" font-weight="normal" stroke-width="1" height="615" font-family="'Dialog'" font-style="normal" stroke-linejoin="miter" font-size="12px" stroke-dashoffset="0" image-rendering="auto">
  <!--Generated by ySVG 2.5-->
  <defs id="genericDefs"/>
  <g>
    <defs id="defs1">
      <clipPath clipPathUnits="userSpaceOnUse" id="clipPath1">
        <path d="M0 0 L560 0 L560 615 L0 615 L0 0 Z"/>
      </clipPath>
      <clipPath clipPathUnits="userSpaceOnUse" id="clipPath2">
        <path d="M410 110 L970 110 L970 725 L410 725 L410 110 Z"/>
      </clipPath>
    </defs>
    <g fill="white" text-rendering="geometricPrecision" shape-rendering="geometricPrecision" transform="translate(-410,-110)" stroke="white">
      <rect x="410" width="560" height="615" y="110" clip-path="url(#clipPath2)" stroke="none"/>
    </g>
    <g stroke-linecap="round" transform="matrix(1,0,0,1,-410,-110)" stroke-dashoffset="2" fill="rgb(204,204,204)" text-rendering="geometricPrecision" shape-rendering="geometricPrecision" stroke-dasharray="0,8" stroke="rgb(204,204,204)" stroke-width="2" stroke-miterlimit="1.45">
      <path fill="none" d="M690 215 L690 175" clip-path="url(#clipPath2)"/>
      <path fill="none" d="M676.1325 170.8013 L643.8675 219.1987" clip-path="url(#clipPath2)"/>
      <path fill="none" d="M676.1325 309.1987 L643.8675 260.8013" clip-path="url(#clipPath2)"/>
      <path fill="none" d="M690 305 L690 265" clip-path="url(#clipPath2)"/>
      <path fill="none" d="M643.8675 309.1987 L676.1325 260.8013" clip-path="url(#clipPath2)"/>
      <path fill="none" d="M736.1325 309.1987 L703.8675 260.8013" clip-path="url(#clipPath2)"/>
      <path fill="none" d="M703.8675 170.8013 L736.1325 219.1987" clip-path="url(#clipPath2)"/>
      <path fill="none" d="M703.8675 309.1987 L736.1325 260.8013" clip-path="url(#clipPath2)"/>
      <path fill="none" d="M616.1325 260.8013 L583.8675 309.1987" clip-path="url(#clipPath2)"/>
      <path fill="none" d="M616.1325 399.1987 L583.8675 350.8013" clip-path="url(#clipPath2)"/>
      <path fill="none" d="M630 265 L630 305" clip-path="url(#clipPath2)"/>
      <path fill="none" d="M583.8675 399.1987 L616.1325 350.8013" clip-path="url(#clipPath2)"/>
      <path fill="none" d="M676.1325 399.1987 L643.8675 350.8013" clip-path="url(#clipPath2)"/>
      <path fill="none" d="M690 395 L690 355" clip-path="url(#clipPath2)"/>
      <path fill="none" d="M643.8675 399.1987 L676.1325 350.8013" clip-path="url(#clipPath2)"/>
      <path fill="none" d="M736.1325 399.1987 L703.8675 350.8013" clip-path="url(#clipPath2)"/>
      <path fill="none" d="M750 265 L750 305" clip-path="url(#clipPath2)"/>
      <path fill="none" d="M703.8675 399.1987 L736.1325 350.8013" clip-path="url(#clipPath2)"/>
      <path fill="none" d="M796.1325 399.1987 L763.8675 350.8013" clip-path="url(#clipPath2)"/>
      <path fill="none" d="M763.8675 260.8013 L796.1325 309.1987" clip-path="url(#clipPath2)"/>
      <path fill="none" d="M763.8675 399.1987 L796.1325 350.8013" clip-path="url(#clipPath2)"/>
      <path fill="none" d="M556.1325 350.8013 L523.8675 399.1987" clip-path="url(#clipPath2)"/>
      <path fill="none" d="M556.1325 489.1987 L523.8675 440.8013" clip-path="url(#clipPath2)"/>
      <path fill="none" d="M570 355 L570 395" clip-path="url(#clipPath2)"/>
      <path fill="none" d="M523.8675 489.1987 L556.1325 440.8013" clip-path="url(#clipPath2)"/>
      <path fill="none" d="M570 485 L570 445" clip-path="url(#clipPath2)"/>
      <path fill="none" d="M630 355 L630 395" clip-path="url(#clipPath2)"/>
      <path fill="none" d="M676.1325 489.1987 L643.8675 440.8013" clip-path="url(#clipPath2)"/>
      <path fill="none" d="M690 485 L690 445" clip-path="url(#clipPath2)"/>
      <path fill="none" d="M750 355 L750 395" clip-path="url(#clipPath2)"/>
      <path fill="none" d="M703.8675 489.1987 L736.1325 440.8013" clip-path="url(#clipPath2)"/>
      <path fill="none" d="M810 355 L810 395" clip-path="url(#clipPath2)"/>
      <path fill="none" d="M810 485 L810 445" clip-path="url(#clipPath2)"/>
      <path fill="none" d="M856.1325 489.1987 L823.8675 440.8013" clip-path="url(#clipPath2)"/>
      <path fill="none" d="M823.8675 350.8013 L856.1325 399.1987" clip-path="url(#clipPath2)"/>
      <path fill="none" d="M823.8675 489.1987 L856.1325 440.8013" clip-path="url(#clipPath2)"/>
      <path fill="none" d="M496.1325 440.8013 L463.8675 489.1987" clip-path="url(#clipPath2)"/>
      <path fill="none" d="M510 445 L510 485" clip-path="url(#clipPath2)"/>
      <path fill="none" d="M616.1325 440.8013 L583.8675 489.1987" clip-path="url(#clipPath2)"/>
      <path fill="none" d="M690 575 L690 535" clip-path="url(#clipPath2)"/>
      <path fill="none" d="M763.8675 440.8013 L796.1325 489.1987" clip-path="url(#clipPath2)"/>
      <path fill="none" d="M870 445 L870 485" clip-path="url(#clipPath2)"/>
      <path fill="none" d="M883.8675 440.8013 L916.1325 489.1987" clip-path="url(#clipPath2)"/>
    </g>
    <g stroke-linecap="butt" transform="matrix(1,0,0,1,-410,-110)" fill="rgb(153,153,153)" text-rendering="geometricPrecision" shape-rendering="geometricPrecision" stroke="rgb(153,153,153)" stroke-miterlimit="1.45">
      <circle fill="none" r="25" clip-path="url(#clipPath2)" cx="690" cy="150"/>
      <circle fill="none" r="25" clip-path="url(#clipPath2)" cx="630" cy="240"/>
      <circle fill="none" r="25" clip-path="url(#clipPath2)" cx="690" cy="240"/>
      <circle fill="none" r="25" clip-path="url(#clipPath2)" cx="750" cy="240"/>
      <circle fill="none" r="25" clip-path="url(#clipPath2)" cx="570" cy="330"/>
      <circle fill="none" r="25" clip-path="url(#clipPath2)" cx="630" cy="330"/>
      <circle fill="none" r="25" clip-path="url(#clipPath2)" cx="690" cy="330"/>
      <circle fill="none" r="25" clip-path="url(#clipPath2)" cx="750" cy="330"/>
      <circle fill="none" r="25" clip-path="url(#clipPath2)" cx="810" cy="330"/>
      <circle fill="none" r="25" clip-path="url(#clipPath2)" cx="510" cy="420"/>
      <circle fill="none" r="25" clip-path="url(#clipPath2)" cx="570" cy="420"/>
      <circle fill="none" r="25" clip-path="url(#clipPath2)" cx="630" cy="420"/>
      <circle fill="none" r="25" clip-path="url(#clipPath2)" cx="690" cy="420"/>
      <circle fill="none" r="25" clip-path="url(#clipPath2)" cx="750" cy="420"/>
      <circle fill="none" r="25" clip-path="url(#clipPath2)" cx="810" cy="420"/>
      <circle fill="none" r="25" clip-path="url(#clipPath2)" cx="870" cy="420"/>
      <circle fill="none" r="25" clip-path="url(#clipPath2)" cx="450" cy="510"/>
      <circle fill="none" r="25" clip-path="url(#clipPath2)" cx="510" cy="510"/>
      <circle fill="none" r="25" clip-path="url(#clipPath2)" cx="570" cy="510"/>
      <circle fill="none" r="25" clip-path="url(#clipPath2)" cx="690" cy="510"/>
      <circle fill="none" r="25" clip-path="url(#clipPath2)" cx="810" cy="510"/>
      <circle fill="none" r="25" clip-path="url(#clipPath2)" cx="870" cy="510"/>
      <circle fill="none" r="25" clip-path="url(#clipPath2)" cx="930" cy="510"/>
      <circle fill="none" r="25" clip-path="url(#clipPath2)" cx="690" cy="600"/>
      <rect x="425" y="665" clip-path="url(#clipPath2)" fill="none" width="530" height="45" stroke="black"/>
    </g>
    <g font-size="14px" stroke-linecap="butt" transform="matrix(1,0,0,1,-410,-110)" text-rendering="geometricPrecision" font-family="'Roboto Condensed'" shape-rendering="geometricPrecision" stroke-miterlimit="1.45">
      <text x="543.8716" xml:space="preserve" y="683.7061" clip-path="url(#clipPath2)" stroke="none">#xmasgraph https://github.com/adibaba/xmasgraph</text>
      <text x="442.2041" xml:space="preserve" y="702.1699" clip-path="url(#clipPath2)" stroke="none">Licensed under a Creative Commons Attribution-NonCommercial 4.0 International License</text>
    </g>
  </g>
</svg>
