<?xml version="1.0" encoding="UTF-8"?><svg xmlns="http://www.w3.org/2000/svg" xmlns:xlink="http://www.w3.org/1999/xlink" fill-opacity="1" color-rendering="auto" color-interpolation="auto" text-rendering="auto" stroke="black" stroke-linecap="square" width="560" stroke-miterlimit="10" shape-rendering="auto" stroke-opacity="1" fill="black" stroke-dasharray="none" font-weight="normal" stroke-width="1" height="645" font-family="'Dialog'" font-style="normal" stroke-linejoin="miter" font-size="12px" stroke-dashoffset="0" image-rendering="auto">
  <!--Generated by ySVG 2.5-->
  <defs id="genericDefs"/>
  <g>
    <defs id="defs1">
      <clipPath clipPathUnits="userSpaceOnUse" id="clipPath1">
        <path d="M0 0 L560 0 L560 645 L0 645 L0 0 Z"/>
      </clipPath>
      <clipPath clipPathUnits="userSpaceOnUse" id="clipPath2">
        <path d="M410 110 L970 110 L970 755 L410 755 L410 110 Z"/>
      </clipPath>
    </defs>
    <g fill="white" text-rendering="geometricPrecision" shape-rendering="geometricPrecision" transform="translate(-410,-110)" stroke="white">
      <rect x="410" width="560" height="645" y="110" clip-path="url(#clipPath2)" stroke="none"/>
    </g>
    <g fill="rgb(52,108,30)" text-rendering="geometricPrecision" shape-rendering="geometricPrecision" transform="matrix(1,0,0,1,-410,-110)" stroke="rgb(52,108,30)">
      <circle r="25" clip-path="url(#clipPath2)" cx="690" cy="150" stroke="none"/>
      <circle stroke-linecap="butt" clip-path="url(#clipPath2)" fill="none" r="25" cx="690" cy="150" stroke-width="3" stroke-miterlimit="1.45"/>
    </g>
    <g stroke-linecap="butt" font-size="28px" transform="matrix(1,0,0,1,-410,-110)" fill="white" text-rendering="geometricPrecision" font-family="'Roboto Condensed'" shape-rendering="geometricPrecision" stroke="white" font-weight="bold" stroke-miterlimit="1.45">
      <text x="675.8359" xml:space="preserve" y="160.876" clip-path="url(#clipPath2)" stroke="none">10</text>
    </g>
    <g fill="rgb(52,108,30)" text-rendering="geometricPrecision" shape-rendering="geometricPrecision" transform="matrix(1,0,0,1,-410,-110)" stroke="rgb(52,108,30)">
      <circle r="25" clip-path="url(#clipPath2)" cx="630" cy="240" stroke="none"/>
      <circle stroke-linecap="butt" clip-path="url(#clipPath2)" fill="none" r="25" cx="630" cy="240" stroke-width="3" stroke-miterlimit="1.45"/>
    </g>
    <g stroke-linecap="butt" font-size="28px" transform="matrix(1,0,0,1,-410,-110)" fill="white" text-rendering="geometricPrecision" font-family="'Roboto Condensed'" shape-rendering="geometricPrecision" stroke="white" font-weight="bold" stroke-miterlimit="1.45">
      <text x="615.8359" xml:space="preserve" y="250.876" clip-path="url(#clipPath2)" stroke="none">14</text>
    </g>
    <g fill="rgb(52,108,30)" text-rendering="geometricPrecision" shape-rendering="geometricPrecision" transform="matrix(1,0,0,1,-410,-110)" stroke="rgb(52,108,30)">
      <circle r="25" clip-path="url(#clipPath2)" cx="690" cy="240" stroke="none"/>
      <circle stroke-linecap="butt" clip-path="url(#clipPath2)" fill="none" r="25" cx="690" cy="240" stroke-width="3" stroke-miterlimit="1.45"/>
    </g>
    <g stroke-linecap="butt" font-size="28px" transform="matrix(1,0,0,1,-410,-110)" fill="white" text-rendering="geometricPrecision" font-family="'Roboto Condensed'" shape-rendering="geometricPrecision" stroke="white" font-weight="bold" stroke-miterlimit="1.45">
      <text x="682.918" xml:space="preserve" y="250.876" clip-path="url(#clipPath2)" stroke="none">6</text>
    </g>
    <g fill="rgb(52,108,30)" text-rendering="geometricPrecision" shape-rendering="geometricPrecision" transform="matrix(1,0,0,1,-410,-110)" stroke="rgb(52,108,30)">
      <circle r="25" clip-path="url(#clipPath2)" cx="750" cy="240" stroke="none"/>
      <circle stroke-linecap="butt" clip-path="url(#clipPath2)" fill="none" r="25" cx="750" cy="240" stroke-width="3" stroke-miterlimit="1.45"/>
    </g>
    <g stroke-linecap="butt" font-size="28px" transform="matrix(1,0,0,1,-410,-110)" fill="white" text-rendering="geometricPrecision" font-family="'Roboto Condensed'" shape-rendering="geometricPrecision" stroke="white" font-weight="bold" stroke-miterlimit="1.45">
      <text x="735.8359" xml:space="preserve" y="250.876" clip-path="url(#clipPath2)" stroke="none">15</text>
    </g>
    <g fill="rgb(52,108,30)" text-rendering="geometricPrecision" shape-rendering="geometricPrecision" transform="matrix(1,0,0,1,-410,-110)" stroke="rgb(52,108,30)">
      <circle r="25" clip-path="url(#clipPath2)" cx="570" cy="330" stroke="none"/>
      <circle stroke-linecap="butt" clip-path="url(#clipPath2)" fill="none" r="25" cx="570" cy="330" stroke-width="3" stroke-miterlimit="1.45"/>
    </g>
    <g stroke-linecap="butt" font-size="28px" transform="matrix(1,0,0,1,-410,-110)" fill="white" text-rendering="geometricPrecision" font-family="'Roboto Condensed'" shape-rendering="geometricPrecision" stroke="white" font-weight="bold" stroke-miterlimit="1.45">
      <text x="555.8359" xml:space="preserve" y="340.876" clip-path="url(#clipPath2)" stroke="none">18</text>
    </g>
    <g fill="rgb(52,108,30)" text-rendering="geometricPrecision" shape-rendering="geometricPrecision" transform="matrix(1,0,0,1,-410,-110)" stroke="rgb(52,108,30)">
      <circle r="25" clip-path="url(#clipPath2)" cx="630" cy="330" stroke="none"/>
      <circle stroke-linecap="butt" clip-path="url(#clipPath2)" fill="none" r="25" cx="630" cy="330" stroke-width="3" stroke-miterlimit="1.45"/>
    </g>
    <g stroke-linecap="butt" font-size="28px" transform="matrix(1,0,0,1,-410,-110)" fill="white" text-rendering="geometricPrecision" font-family="'Roboto Condensed'" shape-rendering="geometricPrecision" stroke="white" font-weight="bold" stroke-miterlimit="1.45">
      <text x="622.918" xml:space="preserve" y="340.876" clip-path="url(#clipPath2)" stroke="none">9</text>
    </g>
    <g fill="rgb(52,108,30)" text-rendering="geometricPrecision" shape-rendering="geometricPrecision" transform="matrix(1,0,0,1,-410,-110)" stroke="rgb(52,108,30)">
      <circle r="25" clip-path="url(#clipPath2)" cx="690" cy="330" stroke="none"/>
      <circle stroke-linecap="butt" clip-path="url(#clipPath2)" fill="none" r="25" cx="690" cy="330" stroke-width="3" stroke-miterlimit="1.45"/>
    </g>
    <g stroke-linecap="butt" font-size="28px" transform="matrix(1,0,0,1,-410,-110)" fill="white" text-rendering="geometricPrecision" font-family="'Roboto Condensed'" shape-rendering="geometricPrecision" stroke="white" font-weight="bold" stroke-miterlimit="1.45">
      <text x="682.918" xml:space="preserve" y="340.876" clip-path="url(#clipPath2)" stroke="none">4</text>
    </g>
    <g fill="rgb(52,108,30)" text-rendering="geometricPrecision" shape-rendering="geometricPrecision" transform="matrix(1,0,0,1,-410,-110)" stroke="rgb(52,108,30)">
      <circle r="25" clip-path="url(#clipPath2)" cx="750" cy="330" stroke="none"/>
      <circle stroke-linecap="butt" clip-path="url(#clipPath2)" fill="none" r="25" cx="750" cy="330" stroke-width="3" stroke-miterlimit="1.45"/>
    </g>
    <g stroke-linecap="butt" font-size="28px" transform="matrix(1,0,0,1,-410,-110)" fill="white" text-rendering="geometricPrecision" font-family="'Roboto Condensed'" shape-rendering="geometricPrecision" stroke="white" font-weight="bold" stroke-miterlimit="1.45">
      <text x="735.8359" xml:space="preserve" y="340.876" clip-path="url(#clipPath2)" stroke="none">11</text>
    </g>
    <g fill="rgb(52,108,30)" text-rendering="geometricPrecision" shape-rendering="geometricPrecision" transform="matrix(1,0,0,1,-410,-110)" stroke="rgb(52,108,30)">
      <circle r="25" clip-path="url(#clipPath2)" cx="810" cy="330" stroke="none"/>
      <circle stroke-linecap="butt" clip-path="url(#clipPath2)" fill="none" r="25" cx="810" cy="330" stroke-width="3" stroke-miterlimit="1.45"/>
    </g>
    <g stroke-linecap="butt" font-size="28px" transform="matrix(1,0,0,1,-410,-110)" fill="white" text-rendering="geometricPrecision" font-family="'Roboto Condensed'" shape-rendering="geometricPrecision" stroke="white" font-weight="bold" stroke-miterlimit="1.45">
      <text x="795.8359" xml:space="preserve" y="340.876" clip-path="url(#clipPath2)" stroke="none">19</text>
    </g>
    <g fill="rgb(52,108,30)" text-rendering="geometricPrecision" shape-rendering="geometricPrecision" transform="matrix(1,0,0,1,-410,-110)" stroke="rgb(52,108,30)">
      <circle r="25" clip-path="url(#clipPath2)" cx="510" cy="420" stroke="none"/>
      <circle stroke-linecap="butt" clip-path="url(#clipPath2)" fill="none" r="25" cx="510" cy="420" stroke-width="3" stroke-miterlimit="1.45"/>
    </g>
    <g stroke-linecap="butt" font-size="28px" transform="matrix(1,0,0,1,-410,-110)" fill="white" text-rendering="geometricPrecision" font-family="'Roboto Condensed'" shape-rendering="geometricPrecision" stroke="white" font-weight="bold" stroke-miterlimit="1.45">
      <text x="495.8359" xml:space="preserve" y="430.876" clip-path="url(#clipPath2)" stroke="none">21</text>
    </g>
    <g fill="rgb(52,108,30)" text-rendering="geometricPrecision" shape-rendering="geometricPrecision" transform="matrix(1,0,0,1,-410,-110)" stroke="rgb(52,108,30)">
      <circle r="25" clip-path="url(#clipPath2)" cx="570" cy="420" stroke="none"/>
      <circle stroke-linecap="butt" clip-path="url(#clipPath2)" fill="none" r="25" cx="570" cy="420" stroke-width="3" stroke-miterlimit="1.45"/>
    </g>
    <g stroke-linecap="butt" font-size="28px" transform="matrix(1,0,0,1,-410,-110)" fill="white" text-rendering="geometricPrecision" font-family="'Roboto Condensed'" shape-rendering="geometricPrecision" stroke="white" font-weight="bold" stroke-miterlimit="1.45">
      <text x="555.8359" xml:space="preserve" y="430.876" clip-path="url(#clipPath2)" stroke="none">13</text>
    </g>
    <g fill="rgb(52,108,30)" text-rendering="geometricPrecision" shape-rendering="geometricPrecision" transform="matrix(1,0,0,1,-410,-110)" stroke="rgb(52,108,30)">
      <circle r="25" clip-path="url(#clipPath2)" cx="630" cy="420" stroke="none"/>
      <circle stroke-linecap="butt" clip-path="url(#clipPath2)" fill="none" r="25" cx="630" cy="420" stroke-width="3" stroke-miterlimit="1.45"/>
    </g>
    <g stroke-linecap="butt" font-size="28px" transform="matrix(1,0,0,1,-410,-110)" fill="white" text-rendering="geometricPrecision" font-family="'Roboto Condensed'" shape-rendering="geometricPrecision" stroke="white" font-weight="bold" stroke-miterlimit="1.45">
      <text x="622.918" xml:space="preserve" y="430.876" clip-path="url(#clipPath2)" stroke="none">5</text>
    </g>
    <g fill="rgb(52,108,30)" text-rendering="geometricPrecision" shape-rendering="geometricPrecision" transform="matrix(1,0,0,1,-410,-110)" stroke="rgb(52,108,30)">
      <circle r="25" clip-path="url(#clipPath2)" cx="690" cy="420" stroke="none"/>
      <circle stroke-linecap="butt" clip-path="url(#clipPath2)" fill="none" r="25" cx="690" cy="420" stroke-width="3" stroke-miterlimit="1.45"/>
    </g>
    <g stroke-linecap="butt" font-size="28px" transform="matrix(1,0,0,1,-410,-110)" fill="white" text-rendering="geometricPrecision" font-family="'Roboto Condensed'" shape-rendering="geometricPrecision" stroke="white" font-weight="bold" stroke-miterlimit="1.45">
      <text x="682.918" xml:space="preserve" y="430.876" clip-path="url(#clipPath2)" stroke="none">3</text>
    </g>
    <g fill="rgb(52,108,30)" text-rendering="geometricPrecision" shape-rendering="geometricPrecision" transform="matrix(1,0,0,1,-410,-110)" stroke="rgb(52,108,30)">
      <circle r="25" clip-path="url(#clipPath2)" cx="750" cy="420" stroke="none"/>
      <circle stroke-linecap="butt" clip-path="url(#clipPath2)" fill="none" r="25" cx="750" cy="420" stroke-width="3" stroke-miterlimit="1.45"/>
    </g>
    <g stroke-linecap="butt" font-size="28px" transform="matrix(1,0,0,1,-410,-110)" fill="white" text-rendering="geometricPrecision" font-family="'Roboto Condensed'" shape-rendering="geometricPrecision" stroke="white" font-weight="bold" stroke-miterlimit="1.45">
      <text x="742.918" xml:space="preserve" y="430.876" clip-path="url(#clipPath2)" stroke="none">7</text>
    </g>
    <g fill="rgb(52,108,30)" text-rendering="geometricPrecision" shape-rendering="geometricPrecision" transform="matrix(1,0,0,1,-410,-110)" stroke="rgb(52,108,30)">
      <circle r="25" clip-path="url(#clipPath2)" cx="810" cy="420" stroke="none"/>
      <circle stroke-linecap="butt" clip-path="url(#clipPath2)" fill="none" r="25" cx="810" cy="420" stroke-width="3" stroke-miterlimit="1.45"/>
    </g>
    <g stroke-linecap="butt" font-size="28px" transform="matrix(1,0,0,1,-410,-110)" fill="white" text-rendering="geometricPrecision" font-family="'Roboto Condensed'" shape-rendering="geometricPrecision" stroke="white" font-weight="bold" stroke-miterlimit="1.45">
      <text x="795.8359" xml:space="preserve" y="430.876" clip-path="url(#clipPath2)" stroke="none">16</text>
    </g>
    <g fill="rgb(52,108,30)" text-rendering="geometricPrecision" shape-rendering="geometricPrecision" transform="matrix(1,0,0,1,-410,-110)" stroke="rgb(52,108,30)">
      <circle r="25" clip-path="url(#clipPath2)" cx="870" cy="420" stroke="none"/>
      <circle stroke-linecap="butt" clip-path="url(#clipPath2)" fill="none" r="25" cx="870" cy="420" stroke-width="3" stroke-miterlimit="1.45"/>
    </g>
    <g stroke-linecap="butt" font-size="28px" transform="matrix(1,0,0,1,-410,-110)" fill="white" text-rendering="geometricPrecision" font-family="'Roboto Condensed'" shape-rendering="geometricPrecision" stroke="white" font-weight="bold" stroke-miterlimit="1.45">
      <text x="855.8359" xml:space="preserve" y="430.876" clip-path="url(#clipPath2)" stroke="none">22</text>
    </g>
    <g fill="rgb(52,108,30)" text-rendering="geometricPrecision" shape-rendering="geometricPrecision" transform="matrix(1,0,0,1,-410,-110)" stroke="rgb(52,108,30)">
      <circle r="25" clip-path="url(#clipPath2)" cx="450" cy="510" stroke="none"/>
      <circle stroke-linecap="butt" clip-path="url(#clipPath2)" fill="none" r="25" cx="450" cy="510" stroke-width="3" stroke-miterlimit="1.45"/>
    </g>
    <g stroke-linecap="butt" font-size="28px" transform="matrix(1,0,0,1,-410,-110)" fill="white" text-rendering="geometricPrecision" font-family="'Roboto Condensed'" shape-rendering="geometricPrecision" stroke="white" font-weight="bold" stroke-miterlimit="1.45">
      <text x="435.8359" xml:space="preserve" y="520.876" clip-path="url(#clipPath2)" stroke="none">23</text>
    </g>
    <g fill="rgb(52,108,30)" text-rendering="geometricPrecision" shape-rendering="geometricPrecision" transform="matrix(1,0,0,1,-410,-110)" stroke="rgb(52,108,30)">
      <circle r="25" clip-path="url(#clipPath2)" cx="510" cy="510" stroke="none"/>
      <circle stroke-linecap="butt" clip-path="url(#clipPath2)" fill="none" r="25" cx="510" cy="510" stroke-width="3" stroke-miterlimit="1.45"/>
    </g>
    <g stroke-linecap="butt" font-size="28px" transform="matrix(1,0,0,1,-410,-110)" fill="white" text-rendering="geometricPrecision" font-family="'Roboto Condensed'" shape-rendering="geometricPrecision" stroke="white" font-weight="bold" stroke-miterlimit="1.45">
      <text x="495.8359" xml:space="preserve" y="520.876" clip-path="url(#clipPath2)" stroke="none">17</text>
    </g>
    <g fill="rgb(52,108,30)" text-rendering="geometricPrecision" shape-rendering="geometricPrecision" transform="matrix(1,0,0,1,-410,-110)" stroke="rgb(52,108,30)">
      <circle r="25" clip-path="url(#clipPath2)" cx="570" cy="510" stroke="none"/>
      <circle stroke-linecap="butt" clip-path="url(#clipPath2)" fill="none" r="25" cx="570" cy="510" stroke-width="3" stroke-miterlimit="1.45"/>
    </g>
    <g stroke-linecap="butt" font-size="28px" transform="matrix(1,0,0,1,-410,-110)" fill="white" text-rendering="geometricPrecision" font-family="'Roboto Condensed'" shape-rendering="geometricPrecision" stroke="white" font-weight="bold" stroke-miterlimit="1.45">
      <text x="562.918" xml:space="preserve" y="520.876" clip-path="url(#clipPath2)" stroke="none">8</text>
    </g>
    <g fill="rgb(90,61,22)" text-rendering="geometricPrecision" shape-rendering="geometricPrecision" transform="matrix(1,0,0,1,-410,-110)" stroke="rgb(90,61,22)">
      <circle r="25" clip-path="url(#clipPath2)" cx="690" cy="510" stroke="none"/>
    </g>
    <g stroke-linecap="butt" transform="matrix(1,0,0,1,-410,-110)" fill="rgb(90,54,23)" text-rendering="geometricPrecision" shape-rendering="geometricPrecision" stroke="rgb(90,54,23)" stroke-width="3" stroke-miterlimit="1.45">
      <circle fill="none" r="25" clip-path="url(#clipPath2)" cx="690" cy="510"/>
    </g>
    <g stroke-linecap="butt" font-size="28px" transform="matrix(1,0,0,1,-410,-110)" fill="white" text-rendering="geometricPrecision" font-family="'Roboto Condensed'" shape-rendering="geometricPrecision" stroke="white" font-weight="bold" stroke-miterlimit="1.45">
      <text x="682.918" xml:space="preserve" y="520.876" clip-path="url(#clipPath2)" stroke="none">2</text>
    </g>
    <g fill="rgb(52,108,30)" text-rendering="geometricPrecision" shape-rendering="geometricPrecision" transform="matrix(1,0,0,1,-410,-110)" stroke="rgb(52,108,30)">
      <circle r="25" clip-path="url(#clipPath2)" cx="810" cy="510" stroke="none"/>
      <circle stroke-linecap="butt" clip-path="url(#clipPath2)" fill="none" r="25" cx="810" cy="510" stroke-width="3" stroke-miterlimit="1.45"/>
    </g>
    <g stroke-linecap="butt" font-size="28px" transform="matrix(1,0,0,1,-410,-110)" fill="white" text-rendering="geometricPrecision" font-family="'Roboto Condensed'" shape-rendering="geometricPrecision" stroke="white" font-weight="bold" stroke-miterlimit="1.45">
      <text x="795.8359" xml:space="preserve" y="520.876" clip-path="url(#clipPath2)" stroke="none">12</text>
    </g>
    <g fill="rgb(52,108,30)" text-rendering="geometricPrecision" shape-rendering="geometricPrecision" transform="matrix(1,0,0,1,-410,-110)" stroke="rgb(52,108,30)">
      <circle r="25" clip-path="url(#clipPath2)" cx="870" cy="510" stroke="none"/>
      <circle stroke-linecap="butt" clip-path="url(#clipPath2)" fill="none" r="25" cx="870" cy="510" stroke-width="3" stroke-miterlimit="1.45"/>
    </g>
    <g stroke-linecap="butt" font-size="28px" transform="matrix(1,0,0,1,-410,-110)" fill="white" text-rendering="geometricPrecision" font-family="'Roboto Condensed'" shape-rendering="geometricPrecision" stroke="white" font-weight="bold" stroke-miterlimit="1.45">
      <text x="855.8359" xml:space="preserve" y="520.876" clip-path="url(#clipPath2)" stroke="none">20</text>
    </g>
    <g fill="rgb(52,108,30)" text-rendering="geometricPrecision" shape-rendering="geometricPrecision" transform="matrix(1,0,0,1,-410,-110)" stroke="rgb(52,108,30)">
      <circle r="25" clip-path="url(#clipPath2)" cx="930" cy="510" stroke="none"/>
      <circle stroke-linecap="butt" clip-path="url(#clipPath2)" fill="none" r="25" cx="930" cy="510" stroke-width="3" stroke-miterlimit="1.45"/>
    </g>
    <g stroke-linecap="butt" font-size="28px" transform="matrix(1,0,0,1,-410,-110)" fill="white" text-rendering="geometricPrecision" font-family="'Roboto Condensed'" shape-rendering="geometricPrecision" stroke="white" font-weight="bold" stroke-miterlimit="1.45">
      <text x="915.8359" xml:space="preserve" y="520.876" clip-path="url(#clipPath2)" stroke="none">24</text>
    </g>
    <g fill="rgb(90,54,23)" text-rendering="geometricPrecision" shape-rendering="geometricPrecision" transform="matrix(1,0,0,1,-410,-110)" stroke="rgb(90,54,23)">
      <circle r="25" clip-path="url(#clipPath2)" cx="690" cy="600" stroke="none"/>
      <circle stroke-linecap="butt" clip-path="url(#clipPath2)" fill="none" r="25" cx="690" cy="600" stroke-width="3" stroke-miterlimit="1.45"/>
    </g>
    <g stroke-linecap="butt" font-size="28px" transform="matrix(1,0,0,1,-410,-110)" fill="white" text-rendering="geometricPrecision" font-family="'Roboto Condensed'" shape-rendering="geometricPrecision" stroke="white" font-weight="bold" stroke-miterlimit="1.45">
      <text x="682.918" xml:space="preserve" y="610.876" clip-path="url(#clipPath2)" stroke="none">1</text>
    </g>
    <g text-rendering="geometricPrecision" stroke-miterlimit="1.45" shape-rendering="geometricPrecision" transform="matrix(1,0,0,1,-410,-110)" stroke-linecap="butt">
      <rect fill="none" x="425" width="530" height="45" y="695" clip-path="url(#clipPath2)"/>
      <text x="543.8716" font-size="14px" y="713.7061" clip-path="url(#clipPath2)" font-family="'Roboto Condensed'" stroke="none" xml:space="preserve">#xmasgraph https://github.com/adibaba/xmasgraph</text>
      <text x="442.2041" font-size="14px" y="732.1699" clip-path="url(#clipPath2)" font-family="'Roboto Condensed'" stroke="none" xml:space="preserve">Licensed under a Creative Commons Attribution-NonCommercial 4.0 International License</text>
      <path fill="none" d="M676.1325 170.8013 L654.5455 203.1818" stroke-width="7" clip-path="url(#clipPath2)" stroke="rgb(52,108,30)"/>
      <path fill="rgb(52,108,30)" d="M643.8675 219.1987 L664.2527 207.55 L646.7797 195.9013 Z" stroke-width="7" clip-path="url(#clipPath2)" stroke="none"/>
      <path fill="none" d="M690 215 L690 194.25" stroke-width="7" clip-path="url(#clipPath2)" stroke="rgb(52,108,30)"/>
      <path fill="rgb(52,108,30)" d="M690 175 L679.5 196 L700.5 196 Z" stroke-width="7" clip-path="url(#clipPath2)" stroke="none"/>
      <path fill="none" d="M703.8675 170.8013 L725.4545 203.1818" stroke-width="7" clip-path="url(#clipPath2)" stroke="rgb(52,108,30)"/>
      <path fill="rgb(52,108,30)" d="M736.1325 219.1987 L733.2203 195.9013 L715.7473 207.55 Z" stroke-width="7" clip-path="url(#clipPath2)" stroke="none"/>
      <path fill="none" d="M616.1325 260.8013 L594.5455 293.1818" stroke-width="7" clip-path="url(#clipPath2)" stroke="rgb(52,108,30)"/>
      <path fill="rgb(52,108,30)" d="M583.8675 309.1987 L604.2527 297.55 L586.7797 285.9013 Z" stroke-width="7" clip-path="url(#clipPath2)" stroke="none"/>
      <path fill="none" d="M654.5455 293.1818 L676.1325 260.8013" stroke-width="7" clip-path="url(#clipPath2)" stroke="rgb(52,108,30)"/>
      <path fill="rgb(52,108,30)" d="M643.8675 309.1987 L664.2527 297.55 L646.7797 285.9013 Z" stroke-width="7" clip-path="url(#clipPath2)" stroke="none"/>
      <path fill="none" d="M690 305 L690 284.25" stroke-width="7" clip-path="url(#clipPath2)" stroke="rgb(52,108,30)"/>
      <path fill="rgb(52,108,30)" d="M690 265 L679.5 286 L700.5 286 Z" stroke-width="7" clip-path="url(#clipPath2)" stroke="none"/>
      <path fill="none" d="M725.4545 293.1818 L703.8675 260.8013" stroke-width="7" clip-path="url(#clipPath2)" stroke="rgb(52,108,30)"/>
      <path fill="rgb(52,108,30)" d="M736.1325 309.1987 L733.2203 285.9013 L715.7473 297.55 Z" stroke-width="7" clip-path="url(#clipPath2)" stroke="none"/>
      <path fill="none" d="M763.8675 260.8013 L785.4545 293.1818" stroke-width="7" clip-path="url(#clipPath2)" stroke="rgb(52,108,30)"/>
      <path fill="rgb(52,108,30)" d="M796.1325 309.1987 L793.2203 285.9013 L775.7473 297.55 Z" stroke-width="7" clip-path="url(#clipPath2)" stroke="none"/>
      <path fill="none" d="M556.1325 350.8013 L534.5455 383.1818" stroke-width="7" clip-path="url(#clipPath2)" stroke="rgb(52,108,30)"/>
      <path fill="rgb(52,108,30)" d="M523.8675 399.1987 L544.2527 387.55 L526.7797 375.9013 Z" stroke-width="7" clip-path="url(#clipPath2)" stroke="none"/>
      <path fill="none" d="M594.5455 383.1818 L616.1325 350.8013" stroke-width="7" clip-path="url(#clipPath2)" stroke="rgb(52,108,30)"/>
      <path fill="rgb(52,108,30)" d="M583.8675 399.1987 L604.2527 387.55 L586.7797 375.9013 Z" stroke-width="7" clip-path="url(#clipPath2)" stroke="none"/>
      <path fill="none" d="M654.5455 383.1818 L676.1325 350.8013" stroke-width="7" clip-path="url(#clipPath2)" stroke="rgb(52,108,30)"/>
      <path fill="rgb(52,108,30)" d="M643.8675 399.1987 L664.2527 387.55 L646.7797 375.9013 Z" stroke-width="7" clip-path="url(#clipPath2)" stroke="none"/>
      <path fill="none" d="M690 395 L690 374.25" stroke-width="7" clip-path="url(#clipPath2)" stroke="rgb(52,108,30)"/>
      <path fill="rgb(52,108,30)" d="M690 355 L679.5 376 L700.5 376 Z" stroke-width="7" clip-path="url(#clipPath2)" stroke="none"/>
      <path fill="none" d="M725.4545 383.1818 L703.8675 350.8013" stroke-width="7" clip-path="url(#clipPath2)" stroke="rgb(52,108,30)"/>
      <path fill="rgb(52,108,30)" d="M736.1325 399.1987 L733.2203 375.9013 L715.7473 387.55 Z" stroke-width="7" clip-path="url(#clipPath2)" stroke="none"/>
      <path fill="none" d="M785.4545 383.1818 L763.8675 350.8013" stroke-width="7" clip-path="url(#clipPath2)" stroke="rgb(52,108,30)"/>
      <path fill="rgb(52,108,30)" d="M796.1325 399.1987 L793.2203 375.9013 L775.7473 387.55 Z" stroke-width="7" clip-path="url(#clipPath2)" stroke="none"/>
      <path fill="none" d="M823.8675 350.8013 L845.4545 383.1818" stroke-width="7" clip-path="url(#clipPath2)" stroke="rgb(52,108,30)"/>
      <path fill="rgb(52,108,30)" d="M856.1325 399.1987 L853.2203 375.9013 L835.7473 387.55 Z" stroke-width="7" clip-path="url(#clipPath2)" stroke="none"/>
      <path fill="none" d="M496.1325 440.8013 L474.5455 473.1818" stroke-width="7" clip-path="url(#clipPath2)" stroke="rgb(52,108,30)"/>
      <path fill="rgb(52,108,30)" d="M463.8675 489.1987 L484.2527 477.55 L466.7797 465.9013 Z" stroke-width="7" clip-path="url(#clipPath2)" stroke="none"/>
      <path fill="none" d="M534.5455 473.1818 L556.1325 440.8013" stroke-width="7" clip-path="url(#clipPath2)" stroke="rgb(52,108,30)"/>
      <path fill="rgb(52,108,30)" d="M523.8675 489.1987 L544.2527 477.55 L526.7797 465.9013 Z" stroke-width="7" clip-path="url(#clipPath2)" stroke="none"/>
      <path fill="none" d="M616.1325 440.8013 L594.5455 473.1818" stroke-width="7" clip-path="url(#clipPath2)" stroke="rgb(52,108,30)"/>
      <path fill="rgb(52,108,30)" d="M583.8675 489.1987 L604.2527 477.55 L586.7797 465.9013 Z" stroke-width="7" clip-path="url(#clipPath2)" stroke="none"/>
      <path fill="none" d="M690 485 L690 464.25" stroke-width="7" clip-path="url(#clipPath2)" stroke="rgb(90,61,22)"/>
      <path fill="rgb(90,61,22)" d="M690 445 L679.5 466 L700.5 466 Z" stroke-width="7" clip-path="url(#clipPath2)" stroke="none"/>
      <path fill="none" d="M763.8675 440.8013 L785.4545 473.1818" stroke-width="7" clip-path="url(#clipPath2)" stroke="rgb(52,108,30)"/>
      <path fill="rgb(52,108,30)" d="M796.1325 489.1987 L793.2203 465.9013 L775.7473 477.55 Z" stroke-width="7" clip-path="url(#clipPath2)" stroke="none"/>
      <path fill="none" d="M845.4545 473.1818 L823.8675 440.8013" stroke-width="7" clip-path="url(#clipPath2)" stroke="rgb(52,108,30)"/>
      <path fill="rgb(52,108,30)" d="M856.1325 489.1987 L853.2203 465.9013 L835.7473 477.55 Z" stroke-width="7" clip-path="url(#clipPath2)" stroke="none"/>
      <path fill="none" d="M883.8675 440.8013 L905.4545 473.1818" stroke-width="7" clip-path="url(#clipPath2)" stroke="rgb(52,108,30)"/>
      <path fill="rgb(52,108,30)" d="M916.1325 489.1987 L913.2203 465.9013 L895.7473 477.55 Z" stroke-width="7" clip-path="url(#clipPath2)" stroke="none"/>
      <path fill="none" d="M690 575 L690 554.25" stroke-width="7" clip-path="url(#clipPath2)" stroke="rgb(90,61,22)"/>
      <path fill="rgb(90,61,22)" d="M690 535 L679.5 556 L700.5 556 Z" stroke-width="7" clip-path="url(#clipPath2)" stroke="none"/>
      <path fill="none" d="M690 665 L690 644.25" stroke-width="7" clip-path="url(#clipPath2)" stroke="rgb(90,61,22)"/>
      <path fill="rgb(90,61,22)" d="M690 625 L679.5 646 L700.5 646 Z" stroke-width="7" clip-path="url(#clipPath2)" stroke="none"/>
    </g>
  </g>
</svg>
