<?xml version="1.0" encoding="UTF-8"?><svg xmlns="http://www.w3.org/2000/svg" xmlns:xlink="http://www.w3.org/1999/xlink" fill-opacity="1" color-rendering="auto" color-interpolation="auto" text-rendering="auto" stroke="black" stroke-linecap="square" width="560" stroke-miterlimit="10" shape-rendering="auto" stroke-opacity="1" fill="black" stroke-dasharray="none" font-weight="normal" stroke-width="1" height="650" font-family="'Dialog'" font-style="normal" stroke-linejoin="miter" font-size="12px" stroke-dashoffset="0" image-rendering="auto">
  <!--Generated by ySVG 2.5-->
  <defs id="genericDefs"/>
  <g>
    <defs id="defs1">
      <clipPath clipPathUnits="userSpaceOnUse" id="clipPath1">
        <path d="M0 0 L560 0 L560 650 L0 650 L0 0 Z"/>
      </clipPath>
      <clipPath clipPathUnits="userSpaceOnUse" id="clipPath2">
        <path d="M410 110 L970 110 L970 760 L410 760 L410 110 Z"/>
      </clipPath>
    </defs>
    <g fill="white" text-rendering="geometricPrecision" shape-rendering="geometricPrecision" transform="translate(-410,-110)" stroke="white">
      <rect x="410" width="560" height="650" y="110" clip-path="url(#clipPath2)" stroke="none"/>
    </g>
    <g fill="rgb(52,108,30)" text-rendering="geometricPrecision" shape-rendering="geometricPrecision" transform="matrix(1,0,0,1,-410,-110)" stroke="rgb(52,108,30)">
      <path d="M690 175 L698.8168 162.1353 L713.7764 157.7254 L704.2659 145.3647 L704.6946 129.7746 L690 135 L675.3054 129.7746 L675.7341 145.3647 L666.2236 157.7254 L681.1832 162.1353 Z" fill-rule="evenodd" clip-path="url(#clipPath2)" stroke="none"/>
      <path stroke-linecap="butt" clip-path="url(#clipPath2)" fill="none" fill-rule="evenodd" d="M690 175 L698.8168 162.1353 L713.7764 157.7254 L704.2659 145.3647 L704.6946 129.7746 L690 135 L675.3054 129.7746 L675.7341 145.3647 L666.2236 157.7254 L681.1832 162.1353 Z" stroke-width="3" stroke-miterlimit="1.45"/>
      <path d="M630 265 L638.8168 252.1353 L653.7764 247.7254 L644.2659 235.3647 L644.6946 219.7746 L630 225 L615.3054 219.7746 L615.7341 235.3647 L606.2236 247.7254 L621.1832 252.1353 Z" clip-path="url(#clipPath2)" fill-rule="evenodd" stroke="none"/>
      <path stroke-linecap="butt" clip-path="url(#clipPath2)" fill="none" fill-rule="evenodd" d="M630 265 L638.8168 252.1353 L653.7764 247.7254 L644.2659 235.3647 L644.6946 219.7746 L630 225 L615.3054 219.7746 L615.7341 235.3647 L606.2236 247.7254 L621.1832 252.1353 Z" stroke-width="3" stroke-miterlimit="1.45"/>
      <path d="M690 265 L698.8168 252.1353 L713.7764 247.7254 L704.2659 235.3647 L704.6946 219.7746 L690 225 L675.3054 219.7746 L675.7341 235.3647 L666.2236 247.7254 L681.1832 252.1353 Z" clip-path="url(#clipPath2)" fill-rule="evenodd" stroke="none"/>
      <path stroke-linecap="butt" clip-path="url(#clipPath2)" fill="none" fill-rule="evenodd" d="M690 265 L698.8168 252.1353 L713.7764 247.7254 L704.2659 235.3647 L704.6946 219.7746 L690 225 L675.3054 219.7746 L675.7341 235.3647 L666.2236 247.7254 L681.1832 252.1353 Z" stroke-width="3" stroke-miterlimit="1.45"/>
      <path d="M750 265 L758.8168 252.1353 L773.7764 247.7254 L764.2659 235.3647 L764.6946 219.7746 L750 225 L735.3054 219.7746 L735.7341 235.3647 L726.2236 247.7254 L741.1832 252.1353 Z" clip-path="url(#clipPath2)" fill-rule="evenodd" stroke="none"/>
      <path stroke-linecap="butt" clip-path="url(#clipPath2)" fill="none" fill-rule="evenodd" d="M750 265 L758.8168 252.1353 L773.7764 247.7254 L764.2659 235.3647 L764.6946 219.7746 L750 225 L735.3054 219.7746 L735.7341 235.3647 L726.2236 247.7254 L741.1832 252.1353 Z" stroke-width="3" stroke-miterlimit="1.45"/>
      <path d="M570 355 L578.8168 342.1353 L593.7764 337.7254 L584.2659 325.3647 L584.6946 309.7746 L570 315 L555.3054 309.7746 L555.7341 325.3647 L546.2236 337.7254 L561.1832 342.1353 Z" clip-path="url(#clipPath2)" fill-rule="evenodd" stroke="none"/>
      <path stroke-linecap="butt" clip-path="url(#clipPath2)" fill="none" fill-rule="evenodd" d="M570 355 L578.8168 342.1353 L593.7764 337.7254 L584.2659 325.3647 L584.6946 309.7746 L570 315 L555.3054 309.7746 L555.7341 325.3647 L546.2236 337.7254 L561.1832 342.1353 Z" stroke-width="3" stroke-miterlimit="1.45"/>
      <path d="M630 355 L638.8168 342.1353 L653.7764 337.7254 L644.2659 325.3647 L644.6946 309.7746 L630 315 L615.3054 309.7746 L615.7341 325.3647 L606.2236 337.7254 L621.1832 342.1353 Z" clip-path="url(#clipPath2)" fill-rule="evenodd" stroke="none"/>
      <path stroke-linecap="butt" clip-path="url(#clipPath2)" fill="none" fill-rule="evenodd" d="M630 355 L638.8168 342.1353 L653.7764 337.7254 L644.2659 325.3647 L644.6946 309.7746 L630 315 L615.3054 309.7746 L615.7341 325.3647 L606.2236 337.7254 L621.1832 342.1353 Z" stroke-width="3" stroke-miterlimit="1.45"/>
      <path d="M690 355 L698.8168 342.1353 L713.7764 337.7254 L704.2659 325.3647 L704.6946 309.7746 L690 315 L675.3054 309.7746 L675.7341 325.3647 L666.2236 337.7254 L681.1832 342.1353 Z" clip-path="url(#clipPath2)" fill-rule="evenodd" stroke="none"/>
      <path stroke-linecap="butt" clip-path="url(#clipPath2)" fill="none" fill-rule="evenodd" d="M690 355 L698.8168 342.1353 L713.7764 337.7254 L704.2659 325.3647 L704.6946 309.7746 L690 315 L675.3054 309.7746 L675.7341 325.3647 L666.2236 337.7254 L681.1832 342.1353 Z" stroke-width="3" stroke-miterlimit="1.45"/>
      <path d="M750 355 L758.8168 342.1353 L773.7764 337.7254 L764.2659 325.3647 L764.6946 309.7746 L750 315 L735.3054 309.7746 L735.7341 325.3647 L726.2236 337.7254 L741.1832 342.1353 Z" clip-path="url(#clipPath2)" fill-rule="evenodd" stroke="none"/>
      <path stroke-linecap="butt" clip-path="url(#clipPath2)" fill="none" fill-rule="evenodd" d="M750 355 L758.8168 342.1353 L773.7764 337.7254 L764.2659 325.3647 L764.6946 309.7746 L750 315 L735.3054 309.7746 L735.7341 325.3647 L726.2236 337.7254 L741.1832 342.1353 Z" stroke-width="3" stroke-miterlimit="1.45"/>
      <path d="M810 355 L818.8168 342.1353 L833.7764 337.7254 L824.2659 325.3647 L824.6946 309.7746 L810 315 L795.3054 309.7746 L795.7341 325.3647 L786.2236 337.7254 L801.1832 342.1353 Z" clip-path="url(#clipPath2)" fill-rule="evenodd" stroke="none"/>
      <path stroke-linecap="butt" clip-path="url(#clipPath2)" fill="none" fill-rule="evenodd" d="M810 355 L818.8168 342.1353 L833.7764 337.7254 L824.2659 325.3647 L824.6946 309.7746 L810 315 L795.3054 309.7746 L795.7341 325.3647 L786.2236 337.7254 L801.1832 342.1353 Z" stroke-width="3" stroke-miterlimit="1.45"/>
      <path d="M510 445 L518.8168 432.1353 L533.7764 427.7254 L524.2659 415.3647 L524.6946 399.7746 L510 405 L495.3054 399.7746 L495.7342 415.3647 L486.2236 427.7254 L501.1832 432.1353 Z" clip-path="url(#clipPath2)" fill-rule="evenodd" stroke="none"/>
      <path stroke-linecap="butt" clip-path="url(#clipPath2)" fill="none" fill-rule="evenodd" d="M510 445 L518.8168 432.1353 L533.7764 427.7254 L524.2659 415.3647 L524.6946 399.7746 L510 405 L495.3054 399.7746 L495.7342 415.3647 L486.2236 427.7254 L501.1832 432.1353 Z" stroke-width="3" stroke-miterlimit="1.45"/>
      <path d="M570 445 L578.8168 432.1353 L593.7764 427.7254 L584.2659 415.3647 L584.6946 399.7746 L570 405 L555.3054 399.7746 L555.7341 415.3647 L546.2236 427.7254 L561.1832 432.1353 Z" clip-path="url(#clipPath2)" fill-rule="evenodd" stroke="none"/>
      <path stroke-linecap="butt" clip-path="url(#clipPath2)" fill="none" fill-rule="evenodd" d="M570 445 L578.8168 432.1353 L593.7764 427.7254 L584.2659 415.3647 L584.6946 399.7746 L570 405 L555.3054 399.7746 L555.7341 415.3647 L546.2236 427.7254 L561.1832 432.1353 Z" stroke-width="3" stroke-miterlimit="1.45"/>
      <path d="M630 445 L638.8168 432.1353 L653.7764 427.7254 L644.2659 415.3647 L644.6946 399.7746 L630 405 L615.3054 399.7746 L615.7341 415.3647 L606.2236 427.7254 L621.1832 432.1353 Z" clip-path="url(#clipPath2)" fill-rule="evenodd" stroke="none"/>
      <path stroke-linecap="butt" clip-path="url(#clipPath2)" fill="none" fill-rule="evenodd" d="M630 445 L638.8168 432.1353 L653.7764 427.7254 L644.2659 415.3647 L644.6946 399.7746 L630 405 L615.3054 399.7746 L615.7341 415.3647 L606.2236 427.7254 L621.1832 432.1353 Z" stroke-width="3" stroke-miterlimit="1.45"/>
      <path d="M690 445 L698.8168 432.1353 L713.7764 427.7254 L704.2659 415.3647 L704.6946 399.7746 L690 405 L675.3054 399.7746 L675.7341 415.3647 L666.2236 427.7254 L681.1832 432.1353 Z" clip-path="url(#clipPath2)" fill-rule="evenodd" stroke="none"/>
      <path stroke-linecap="butt" clip-path="url(#clipPath2)" fill="none" fill-rule="evenodd" d="M690 445 L698.8168 432.1353 L713.7764 427.7254 L704.2659 415.3647 L704.6946 399.7746 L690 405 L675.3054 399.7746 L675.7341 415.3647 L666.2236 427.7254 L681.1832 432.1353 Z" stroke-width="3" stroke-miterlimit="1.45"/>
      <path d="M750 445 L758.8168 432.1353 L773.7764 427.7254 L764.2659 415.3647 L764.6946 399.7746 L750 405 L735.3054 399.7746 L735.7341 415.3647 L726.2236 427.7254 L741.1832 432.1353 Z" clip-path="url(#clipPath2)" fill-rule="evenodd" stroke="none"/>
      <path stroke-linecap="butt" clip-path="url(#clipPath2)" fill="none" fill-rule="evenodd" d="M750 445 L758.8168 432.1353 L773.7764 427.7254 L764.2659 415.3647 L764.6946 399.7746 L750 405 L735.3054 399.7746 L735.7341 415.3647 L726.2236 427.7254 L741.1832 432.1353 Z" stroke-width="3" stroke-miterlimit="1.45"/>
      <path d="M810 445 L818.8168 432.1353 L833.7764 427.7254 L824.2659 415.3647 L824.6946 399.7746 L810 405 L795.3054 399.7746 L795.7341 415.3647 L786.2236 427.7254 L801.1832 432.1353 Z" clip-path="url(#clipPath2)" fill-rule="evenodd" stroke="none"/>
      <path stroke-linecap="butt" clip-path="url(#clipPath2)" fill="none" fill-rule="evenodd" d="M810 445 L818.8168 432.1353 L833.7764 427.7254 L824.2659 415.3647 L824.6946 399.7746 L810 405 L795.3054 399.7746 L795.7341 415.3647 L786.2236 427.7254 L801.1832 432.1353 Z" stroke-width="3" stroke-miterlimit="1.45"/>
      <path d="M870 445 L878.8168 432.1353 L893.7764 427.7254 L884.2659 415.3647 L884.6946 399.7746 L870 405 L855.3054 399.7746 L855.7341 415.3647 L846.2236 427.7254 L861.1832 432.1353 Z" clip-path="url(#clipPath2)" fill-rule="evenodd" stroke="none"/>
      <path stroke-linecap="butt" clip-path="url(#clipPath2)" fill="none" fill-rule="evenodd" d="M870 445 L878.8168 432.1353 L893.7764 427.7254 L884.2659 415.3647 L884.6946 399.7746 L870 405 L855.3054 399.7746 L855.7341 415.3647 L846.2236 427.7254 L861.1832 432.1353 Z" stroke-width="3" stroke-miterlimit="1.45"/>
      <path d="M450 535 L458.8168 522.1353 L473.7764 517.7254 L464.2658 505.3647 L464.6946 489.7746 L450 495 L435.3054 489.7746 L435.7342 505.3647 L426.2236 517.7254 L441.1832 522.1353 Z" clip-path="url(#clipPath2)" fill-rule="evenodd" stroke="none"/>
      <path stroke-linecap="butt" clip-path="url(#clipPath2)" fill="none" fill-rule="evenodd" d="M450 535 L458.8168 522.1353 L473.7764 517.7254 L464.2658 505.3647 L464.6946 489.7746 L450 495 L435.3054 489.7746 L435.7342 505.3647 L426.2236 517.7254 L441.1832 522.1353 Z" stroke-width="3" stroke-miterlimit="1.45"/>
      <path d="M510 535 L518.8168 522.1353 L533.7764 517.7254 L524.2659 505.3647 L524.6946 489.7746 L510 495 L495.3054 489.7746 L495.7342 505.3647 L486.2236 517.7254 L501.1832 522.1353 Z" clip-path="url(#clipPath2)" fill-rule="evenodd" stroke="none"/>
      <path stroke-linecap="butt" clip-path="url(#clipPath2)" fill="none" fill-rule="evenodd" d="M510 535 L518.8168 522.1353 L533.7764 517.7254 L524.2659 505.3647 L524.6946 489.7746 L510 495 L495.3054 489.7746 L495.7342 505.3647 L486.2236 517.7254 L501.1832 522.1353 Z" stroke-width="3" stroke-miterlimit="1.45"/>
      <path d="M570 535 L578.8168 522.1353 L593.7764 517.7254 L584.2659 505.3647 L584.6946 489.7746 L570 495 L555.3054 489.7746 L555.7341 505.3647 L546.2236 517.7254 L561.1832 522.1353 Z" clip-path="url(#clipPath2)" fill-rule="evenodd" stroke="none"/>
      <path stroke-linecap="butt" clip-path="url(#clipPath2)" fill="none" fill-rule="evenodd" d="M570 535 L578.8168 522.1353 L593.7764 517.7254 L584.2659 505.3647 L584.6946 489.7746 L570 495 L555.3054 489.7746 L555.7341 505.3647 L546.2236 517.7254 L561.1832 522.1353 Z" stroke-width="3" stroke-miterlimit="1.45"/>
      <path fill="rgb(90,54,23)" d="M690 535 L698.8168 522.1353 L713.7764 517.7254 L704.2659 505.3647 L704.6946 489.7746 L690 495 L675.3054 489.7746 L675.7341 505.3647 L666.2236 517.7254 L681.1832 522.1353 Z" clip-path="url(#clipPath2)" fill-rule="evenodd" stroke="none"/>
    </g>
    <g stroke-linecap="butt" transform="matrix(1,0,0,1,-410,-110)" fill="rgb(90,54,23)" text-rendering="geometricPrecision" shape-rendering="geometricPrecision" stroke="rgb(90,54,23)" stroke-width="3" stroke-miterlimit="1.45">
      <path fill="none" d="M690 535 L698.8168 522.1353 L713.7764 517.7254 L704.2659 505.3647 L704.6946 489.7746 L690 495 L675.3054 489.7746 L675.7341 505.3647 L666.2236 517.7254 L681.1832 522.1353 Z" fill-rule="evenodd" clip-path="url(#clipPath2)"/>
    </g>
    <g fill="rgb(52,108,30)" text-rendering="geometricPrecision" shape-rendering="geometricPrecision" transform="matrix(1,0,0,1,-410,-110)" stroke="rgb(52,108,30)">
      <path d="M810 535 L818.8168 522.1353 L833.7764 517.7254 L824.2659 505.3647 L824.6946 489.7746 L810 495 L795.3054 489.7746 L795.7341 505.3647 L786.2236 517.7254 L801.1832 522.1353 Z" fill-rule="evenodd" clip-path="url(#clipPath2)" stroke="none"/>
      <path stroke-linecap="butt" clip-path="url(#clipPath2)" fill="none" fill-rule="evenodd" d="M810 535 L818.8168 522.1353 L833.7764 517.7254 L824.2659 505.3647 L824.6946 489.7746 L810 495 L795.3054 489.7746 L795.7341 505.3647 L786.2236 517.7254 L801.1832 522.1353 Z" stroke-width="3" stroke-miterlimit="1.45"/>
      <path d="M870 535 L878.8168 522.1353 L893.7764 517.7254 L884.2659 505.3647 L884.6946 489.7746 L870 495 L855.3054 489.7746 L855.7341 505.3647 L846.2236 517.7254 L861.1832 522.1353 Z" clip-path="url(#clipPath2)" fill-rule="evenodd" stroke="none"/>
      <path stroke-linecap="butt" clip-path="url(#clipPath2)" fill="none" fill-rule="evenodd" d="M870 535 L878.8168 522.1353 L893.7764 517.7254 L884.2659 505.3647 L884.6946 489.7746 L870 495 L855.3054 489.7746 L855.7341 505.3647 L846.2236 517.7254 L861.1832 522.1353 Z" stroke-width="3" stroke-miterlimit="1.45"/>
      <path d="M930 535 L938.8168 522.1353 L953.7764 517.7254 L944.2659 505.3647 L944.6946 489.7746 L930 495 L915.3054 489.7746 L915.7341 505.3647 L906.2236 517.7254 L921.1832 522.1353 Z" clip-path="url(#clipPath2)" fill-rule="evenodd" stroke="none"/>
      <path stroke-linecap="butt" clip-path="url(#clipPath2)" fill="none" fill-rule="evenodd" d="M930 535 L938.8168 522.1353 L953.7764 517.7254 L944.2659 505.3647 L944.6946 489.7746 L930 495 L915.3054 489.7746 L915.7341 505.3647 L906.2236 517.7254 L921.1832 522.1353 Z" stroke-width="3" stroke-miterlimit="1.45"/>
      <path fill="rgb(90,54,23)" d="M690 625 L698.8168 612.1353 L713.7764 607.7254 L704.2659 595.3647 L704.6946 579.7746 L690 585 L675.3054 579.7746 L675.7341 595.3647 L666.2236 607.7254 L681.1832 612.1353 Z" clip-path="url(#clipPath2)" fill-rule="evenodd" stroke="none"/>
    </g>
    <g stroke-linecap="butt" transform="matrix(1,0,0,1,-410,-110)" fill="rgb(90,54,23)" text-rendering="geometricPrecision" shape-rendering="geometricPrecision" stroke="rgb(90,54,23)" stroke-width="3" stroke-miterlimit="1.45">
      <path fill="none" d="M690 625 L698.8168 612.1353 L713.7764 607.7254 L704.2659 595.3647 L704.6946 579.7746 L690 585 L675.3054 579.7746 L675.7341 595.3647 L666.2236 607.7254 L681.1832 612.1353 Z" fill-rule="evenodd" clip-path="url(#clipPath2)"/>
      <rect x="425" y="700" clip-path="url(#clipPath2)" fill="none" width="530" height="45" stroke="black" stroke-width="1"/>
    </g>
    <g font-size="14px" stroke-linecap="butt" transform="matrix(1,0,0,1,-410,-110)" text-rendering="geometricPrecision" font-family="'Roboto Condensed'" shape-rendering="geometricPrecision" stroke-miterlimit="1.45">
      <text x="543.8716" xml:space="preserve" y="718.7061" clip-path="url(#clipPath2)" stroke="none">#xmasgraph https://github.com/adibaba/xmasgraph</text>
      <text x="442.2041" xml:space="preserve" y="737.1699" clip-path="url(#clipPath2)" stroke="none">Licensed under a Creative Commons Attribution-NonCommercial 4.0 International License</text>
    </g>
    <g fill="rgb(90,54,23)" text-rendering="geometricPrecision" shape-rendering="geometricPrecision" transform="matrix(1,0,0,1,-410,-110)" stroke="rgb(90,54,23)">
      <circle r="7.5" clip-path="url(#clipPath2)" cx="690" cy="662.5" stroke="none"/>
      <circle stroke-linecap="butt" clip-path="url(#clipPath2)" fill="none" r="7.5" cx="690" cy="662.5" stroke-width="3" stroke-miterlimit="1.45"/>
    </g>
    <g stroke-linecap="butt" transform="matrix(1,0,0,1,-410,-110)" fill="rgb(52,108,30)" text-rendering="geometricPrecision" shape-rendering="geometricPrecision" stroke="rgb(52,108,30)" stroke-width="7" stroke-miterlimit="1.45">
      <path fill="none" d="M678.6292 161.3899 L653.7833 186.2776 L645.6778 204.5865" clip-path="url(#clipPath2)"/>
      <path d="M637.8852 222.1887 L655.9874 207.2368 L636.785 198.7358 Z" clip-path="url(#clipPath2)" stroke="none"/>
      <path fill="none" d="M690 225.0146 L690 194.2671" clip-path="url(#clipPath2)"/>
      <path d="M690 175.0171 L679.5 196.0171 L700.5 196.0171 Z" clip-path="url(#clipPath2)" stroke="none"/>
      <path fill="none" d="M703.5401 160.7621 L726.5833 179.0776 L736.4047 204.6295" clip-path="url(#clipPath2)"/>
      <path d="M743.3112 222.5978 L745.5778 199.2288 L725.9759 206.7631 Z" clip-path="url(#clipPath2)" stroke="none"/>
      <path fill="none" d="M616.7057 250.8021 L589.7833 272.6776 L582.1823 294.7017" clip-path="url(#clipPath2)"/>
      <path d="M575.9022 312.8984 L592.6787 296.473 L572.8277 289.6219 Z" clip-path="url(#clipPath2)" stroke="none"/>
      <path fill="none" d="M644.1779 294.6393 L652.9833 272.6776 L677.4562 251.0733" clip-path="url(#clipPath2)"/>
      <path d="M637.014 312.5066 L654.575 296.9225 L635.0833 289.1074 Z" clip-path="url(#clipPath2)" stroke="none"/>
      <path fill="none" d="M690 315.0146 L690 284.2671" clip-path="url(#clipPath2)"/>
      <path d="M690 265.0171 L679.5 286.0171 L700.5 286.0171 Z" clip-path="url(#clipPath2)" stroke="none"/>
      <path fill="none" d="M737.4437 294.7065 L728.1833 268.6776 L704.0577 250.558" clip-path="url(#clipPath2)"/>
      <path d="M743.896 312.8429 L746.7497 289.5382 L726.9645 296.5771 Z" clip-path="url(#clipPath2)" stroke="none"/>
      <path fill="none" d="M763.75 250.6759 L781.7833 264.6776 L794.7199 294.6261" clip-path="url(#clipPath2)"/>
      <path d="M802.3534 312.2979 L803.6651 288.8558 L784.3868 297.1833 Z" clip-path="url(#clipPath2)" stroke="none"/>
      <path fill="none" d="M552.9782 339.7003 L521.7833 357.4776 L516.5974 384.9945" clip-path="url(#clipPath2)"/>
      <path d="M513.0322 403.9114 L527.2398 385.2194 L506.6031 381.3301 Z" clip-path="url(#clipPath2)" stroke="none"/>
      <path fill="none" d="M585.9669 384.5878 L594.5833 365.4776 L618.621 341.3986" clip-path="url(#clipPath2)"/>
      <path d="M578.0544 402.1364 L596.2582 387.3083 L577.1142 378.6765 Z" clip-path="url(#clipPath2)" stroke="none"/>
      <path fill="none" d="M646.9885 384.5803 L655.3834 367.0776 L679.2161 341.5505" clip-path="url(#clipPath2)"/>
      <path d="M638.6636 401.9371 L657.2126 387.5433 L638.278 378.4616 Z" clip-path="url(#clipPath2)" stroke="none"/>
      <path fill="none" d="M690 405.0146 L690 374.2671" clip-path="url(#clipPath2)"/>
      <path d="M690 355.0171 L679.5 376.0171 L700.5 376.0171 Z" clip-path="url(#clipPath2)" stroke="none"/>
      <path fill="none" d="M735.4687 384.6122 L724.9833 359.0776 L703.0846 340.8757" clip-path="url(#clipPath2)"/>
      <path d="M742.7808 402.4194 L744.5169 379.0049 L725.0909 386.9818 Z" clip-path="url(#clipPath2)" stroke="none"/>
      <path fill="none" d="M794.3617 384.5794 L780.9833 354.2776 L763.646 340.6926" clip-path="url(#clipPath2)"/>
      <path d="M802.1366 402.1895 L803.2604 378.7377 L784.0494 387.2194 Z" clip-path="url(#clipPath2)" stroke="none"/>
      <path fill="none" d="M824.1118 340.5992 L846.5833 357.4776 L856.7653 384.6632" clip-path="url(#clipPath2)"/>
      <path d="M863.517 402.6903 L865.9844 379.3416 L846.3185 386.7071 Z" clip-path="url(#clipPath2)" stroke="none"/>
      <path fill="none" d="M497.3906 431.0288 L475.3833 450.2776 L465.0283 474.6411" clip-path="url(#clipPath2)"/>
      <path d="M457.4985 492.3574 L475.3762 477.1378 L456.0494 468.9234 Z" clip-path="url(#clipPath2)" stroke="none"/>
      <path fill="none" d="M526.6144 474.5748 L535.3834 455.8776 L558.9457 431.457" clip-path="url(#clipPath2)"/>
      <path d="M518.4404 492.0032 L536.8638 477.4489 L517.8511 468.5319 Z" clip-path="url(#clipPath2)" stroke="none"/>
      <path fill="none" d="M616.6124 430.774 L591.3834 451.0776 L582.8211 474.6711" clip-path="url(#clipPath2)"/>
      <path d="M576.2542 492.7663 L593.2883 476.608 L573.548 469.4441 Z" clip-path="url(#clipPath2)" stroke="none"/>
      <path fill="none" d="M690 495.0146 L690 464.2671" clip-path="url(#clipPath2)" stroke="rgb(90,61,22)"/>
      <path fill="rgb(90,61,22)" d="M690 445.0171 L679.5 466.0171 L700.5 466.0171 Z" clip-path="url(#clipPath2)" stroke="none"/>
      <path fill="none" d="M762.7186 430.9677 L784.1833 449.4776 L794.8962 474.592" clip-path="url(#clipPath2)"/>
      <path d="M802.4492 492.2984 L803.8676 468.8625 L784.5516 477.1021 Z" clip-path="url(#clipPath2)" stroke="none"/>
      <path fill="none" d="M851.0794 474.5141 L838.5833 451.0776 L820.635 431.563" clip-path="url(#clipPath2)"/>
      <path d="M860.1363 491.5004 L859.5213 468.0298 L840.9908 477.91 Z" clip-path="url(#clipPath2)" stroke="none"/>
      <path fill="none" d="M882.6849 431.0168 L905.7833 451.0776 L915.4575 474.6162" clip-path="url(#clipPath2)"/>
      <path d="M922.7752 492.4211 L924.504 469.0061 L905.0805 476.989 Z" clip-path="url(#clipPath2)" stroke="none"/>
      <path fill="none" d="M690 585.0146 L690 554.2671" clip-path="url(#clipPath2)" stroke="rgb(90,54,23)"/>
      <path fill="rgb(90,54,23)" d="M690 535.0171 L679.5 556.0171 L700.5 556.0171 Z" clip-path="url(#clipPath2)" stroke="none"/>
      <path fill="none" d="M690 655 L690 644.2524" clip-path="url(#clipPath2)" stroke="rgb(90,54,23)"/>
      <path fill="rgb(90,54,23)" d="M690 625.0024 L679.5 646.0024 L700.5 646.0024 Z" clip-path="url(#clipPath2)" stroke="none"/>
    </g>
  </g>
</svg>
